<?xml version="1.0" encoding="iso-8859-1"?>
<!-- Uploaded to: SVG Repo, www.svgrepo.com, Generator: SVG Repo Mixer Tools -->
<svg height="800px" width="800px" version="1.1" id="Capa_1" xmlns="http://www.w3.org/2000/svg" xmlns:xlink="http://www.w3.org/1999/xlink" 
	 viewBox="0 0 463.888 463.888" xml:space="preserve">
<g id="XMLID_39_">
	<g>
		<polygon style="fill:#60A57C;" points="405.364,427.027 405.364,454.888 330.904,454.888 289.664,431.848 289.664,454.888 
			174.214,454.888 174.214,431.848 132.974,454.888 58.524,454.888 58.524,427.027 		"/>
		<polygon style="fill:#6BCE95;" points="276.804,256.677 277.534,267.608 186.354,267.608 187.074,256.677 		"/>
		<polygon style="fill:#6BCE95;" points="178.054,256.677 177.324,267.608 85.614,267.608 85.614,276.608 176.734,276.608 
			167.314,418.027 69.794,418.027 69.794,256.677 		"/>
		<polygon style="fill:#6BCE95;" points="394.084,256.677 394.084,418.027 296.564,418.027 287.154,276.608 378.264,276.608 
			378.264,267.608 286.554,267.608 285.824,256.677 		"/>
		<polygon style="fill:#6BCE95;" points="278.134,276.608 287.544,418.027 176.334,418.027 185.754,276.608 		"/>
		<path d="M414.364,418.027v45.86h-85.8l-29.9-16.7v16.7h-133.45v-16.7l-29.89,16.7h-85.8v-45.86h11.27v-170.35h117.86l6.8-102.23
			c0.98-14.62-5.19-28.91-16.49-38.24l-1.36-1.12c-9.84-8.11-15.48-20.07-15.48-32.82c-0.01-12.75,5.63-24.72,15.47-32.84
			l37.27-30.73c15.69-12.93,38.46-12.93,54.15,0l37.27,30.73c9.84,8.12,15.48,20.09,15.48,32.84c-0.01,12.75-5.65,24.71-15.48,32.82
			l-1.37,1.13c-11.3,9.32-17.46,23.61-16.49,38.23l6.8,102.23h117.86v170.35H414.364z M405.364,454.888v-27.86H58.524v27.86h74.45
			l41.24-23.04v23.04h115.45v-23.04l41.24,23.04H405.364z M394.084,418.027v-161.35h-108.26l0.73,10.93h91.71v9h-91.11l9.41,141.42
			H394.084z M302.764,73.268c0-10.06-4.45-19.5-12.21-25.89l-37.26-30.74c-12.37-10.19-30.33-10.19-42.71,0l-37.26,30.74
			c-7.76,6.39-12.21,15.83-12.2,25.89c0,10.05,4.44,19.48,12.2,25.87l1.36,1.13c13.54,11.17,20.92,28.28,19.75,45.78l-6.76,101.63
			h88.53l-6.76-101.64c-1.17-17.49,6.21-34.6,19.74-45.77l1.38-1.13C298.314,92.747,302.754,83.317,302.764,73.268z
			 M287.544,418.027l-9.41-141.42h-92.38l-9.42,141.42H287.544z M277.534,267.608l-0.73-10.93h-89.73l-0.72,10.93H277.534z
			 M177.324,267.608l0.73-10.93H69.794v161.35h97.52l9.42-141.42h-91.12v-9H177.324z"/>
	</g>
</g>
</svg>