<?xml version="1.0" encoding="iso-8859-1"?>
<!-- Uploaded to: SVG Repo, www.svgrepo.com, Generator: SVG Repo Mixer Tools -->
<svg version="1.1" id="Capa_1" xmlns="http://www.w3.org/2000/svg" xmlns:xlink="http://www.w3.org/1999/xlink" 
	 viewBox="0 0 469.34 469.34" xml:space="preserve">
<g>
	<g id="XMLID_39_">
		<g>
			<path d="M268.19,168.17l93.57,242.53l-16.06,58.64l-68.42-177.31h-85.22l-68.42,177.31l-16.06-58.64l93.57-242.53
				c-10.82-9.39-17.69-23.24-17.69-38.67c0-19.34,10.78-36.2,26.64-44.92V47.34h6.62V0h35.91v47.34h6.61v37.24
				c15.86,8.71,26.64,25.58,26.64,44.92C285.88,144.93,279.01,158.77,268.19,168.17z M352.3,411.18l-91.66-237.57
				c-5.15,3.05-10.88,5.21-16.97,6.3l100.58,260.66L352.3,411.18z M273.81,283.03l-7.23-18.74h-63.82l-7.23,18.74H273.81z
				 M276.88,129.5c0-23.27-18.93-42.21-42.21-42.21c-23.27,0-42.21,18.94-42.21,42.21c0,23.28,18.94,42.21,42.21,42.21
				C257.95,171.71,276.88,152.78,276.88,129.5z M263.11,255.29l-28.44-73.69l-28.43,73.69H263.11z M250.24,80.72V56.34H219.1v24.38
				c4.91-1.57,10.14-2.43,15.57-2.43C240.1,78.29,245.33,79.15,250.24,80.72z M243.63,47.34V9h-17.91v38.34H243.63z M125.09,440.58
				l100.59-260.67c-6.1-1.09-11.83-3.25-16.98-6.3l-91.66,237.56L125.09,440.58z"/>
			<path style="fill:#FFCC73;" d="M260.64,173.61l91.66,237.57l-8.05,29.39L243.67,179.91
				C249.76,178.82,255.49,176.66,260.64,173.61z"/>
			<polygon style="fill:#E2B369;" points="266.58,264.29 273.81,283.03 195.53,283.03 202.76,264.29 			"/>
			<path style="fill:#E2B369;" d="M234.67,87.29c23.28,0,42.21,18.94,42.21,42.21c0,23.28-18.93,42.21-42.21,42.21
				c-23.27,0-42.21-18.93-42.21-42.21C192.46,106.23,211.4,87.29,234.67,87.29z M257.63,129.5c0-12.66-10.3-22.95-22.96-22.95
				s-22.96,10.29-22.96,22.95s10.3,22.96,22.96,22.96S257.63,142.16,257.63,129.5z"/>
			<path d="M234.67,106.55c12.66,0,22.96,10.29,22.96,22.95s-10.3,22.96-22.96,22.96s-22.96-10.3-22.96-22.96
				S222.01,106.55,234.67,106.55z M248.63,129.5c0-7.69-6.26-13.95-13.96-13.95c-7.69,0-13.96,6.26-13.96,13.95
				c0,7.7,6.27,13.96,13.96,13.96C242.37,143.46,248.63,137.2,248.63,129.5z"/>
			<path style="fill:#A7B6C4;" d="M250.24,56.34v24.38c-4.91-1.57-10.14-2.43-15.57-2.43c-5.43,0-10.66,0.86-15.57,2.43V56.34
				H250.24z"/>
			<path style="fill:#A7B6C4;" d="M234.67,115.55c7.7,0,13.96,6.26,13.96,13.95c0,7.7-6.26,13.96-13.96,13.96
				c-7.69,0-13.96-6.26-13.96-13.96C220.71,121.81,226.98,115.55,234.67,115.55z"/>
			<rect x="225.72" y="9" style="fill:#FFCC73;" width="17.91" height="38.34"/>
			<path style="fill:#FFCC73;" d="M225.68,179.91L125.09,440.58l-8.05-29.41l91.66-237.56
				C213.85,176.66,219.58,178.82,225.68,179.91z"/>
		</g>
	</g>
</g>
</svg>