<svg width="30" height="30" viewBox="0 0 30 30" fill="none" xmlns="http://www.w3.org/2000/svg">
<rect x="0.5" y="0.5" width="29" height="29" rx="3.5" stroke="black"/>
<path fill-rule="evenodd" clip-rule="evenodd" d="M6 13.3331C6 9.31074 6 7.299 7.25013 6.04994C8.4992 4.7998 10.5109 4.7998 14.5333 4.7998H16.6667C20.6891 4.7998 22.7008 4.7998 23.9499 6.04994C25.2 7.299 25.2 9.31074 25.2 13.3331V15.4665C25.2 19.4889 25.2 21.5006 23.9499 22.7497C22.7008 23.9998 20.6891 23.9998 16.6667 23.9998H14.5333C10.5109 23.9998 8.4992 23.9998 7.25013 22.7497C6 21.5006 6 19.4889 6 15.4665V13.3331ZM22 9.5998C22 10.0242 21.8314 10.4311 21.5314 10.7312C21.2313 11.0312 20.8243 11.1998 20.4 11.1998C19.9757 11.1998 19.5687 11.0312 19.2686 10.7312C18.9686 10.4311 18.8 10.0242 18.8 9.5998C18.8 9.17546 18.9686 8.76849 19.2686 8.46843C19.5687 8.16838 19.9757 7.9998 20.4 7.9998C20.8243 7.9998 21.2313 8.16838 21.5314 8.46843C21.8314 8.76849 22 9.17546 22 9.5998ZM17.7333 15.4665C17.7333 16.0323 17.5086 16.5749 17.1085 16.975C16.7084 17.375 16.1658 17.5998 15.6 17.5998C15.0342 17.5998 14.4916 17.375 14.0915 16.975C13.6914 16.5749 13.4667 16.0323 13.4667 15.4665C13.4667 14.9007 13.6914 14.3581 14.0915 13.958C14.4916 13.5579 15.0342 13.3331 15.6 13.3331C16.1658 13.3331 16.7084 13.5579 17.1085 13.958C17.5086 14.3581 17.7333 14.9007 17.7333 15.4665ZM19.8667 15.4665C19.8667 16.5981 19.4171 17.6833 18.617 18.4835C17.8168 19.2836 16.7316 19.7331 15.6 19.7331C14.4684 19.7331 13.3832 19.2836 12.583 18.4835C11.7829 17.6833 11.3333 16.5981 11.3333 15.4665C11.3333 14.3349 11.7829 13.2496 12.583 12.4495C13.3832 11.6493 14.4684 11.1998 15.6 11.1998C16.7316 11.1998 17.8168 11.6493 18.617 12.4495C19.4171 13.2496 19.8667 14.3349 19.8667 15.4665Z" fill="black"/>
</svg>
