<svg width="212" height="78" viewBox="0 0 212 78" fill="none" xmlns="http://www.w3.org/2000/svg">
<path d="M9.728 23.448C7.50933 23.448 5.64267 22.9573 4.128 21.976C2.61333 20.9733 1.54667 19.6187 0.928 17.912L4.704 15.704C5.57867 17.9867 7.296 19.128 9.856 19.128C11.0933 19.128 12 18.904 12.576 18.456C13.152 18.008 13.44 17.4427 13.44 16.76C13.44 15.9707 13.088 15.3627 12.384 14.936C11.68 14.488 10.4213 14.008 8.608 13.496C7.60533 13.1973 6.752 12.8987 6.048 12.6C5.36533 12.3013 4.672 11.9067 3.968 11.416C3.28533 10.904 2.76267 10.264 2.4 9.496C2.03733 8.728 1.856 7.832 1.856 6.808C1.856 4.78133 2.57067 3.17067 4 1.976C5.45067 0.759999 7.18933 0.151999 9.216 0.151999C11.0293 0.151999 12.6187 0.599998 13.984 1.496C15.3707 2.37067 16.448 3.59733 17.216 5.176L13.504 7.32C12.608 5.4 11.1787 4.44 9.216 4.44C8.29867 4.44 7.57333 4.65333 7.04 5.08C6.528 5.48533 6.272 6.01867 6.272 6.68C6.272 7.384 6.56 7.96 7.136 8.408C7.73333 8.83467 8.864 9.304 10.528 9.816C11.2107 10.0293 11.7227 10.2 12.064 10.328C12.4267 10.4347 12.9067 10.616 13.504 10.872C14.1227 11.1067 14.592 11.3307 14.912 11.544C15.2533 11.7573 15.6373 12.0453 16.064 12.408C16.4907 12.7707 16.8107 13.144 17.024 13.528C17.2587 13.912 17.4507 14.3813 17.6 14.936C17.7707 15.4693 17.856 16.056 17.856 16.696C17.856 18.7653 17.0987 20.408 15.584 21.624C14.0907 22.84 12.1387 23.448 9.728 23.448ZM24.996 18.776H34.436V23H20.58V0.599998H34.276V4.824H24.996V9.592H33.476V13.752H24.996V18.776ZM59.4688 0.599998V23H55.0848V8.472L48.7808 18.872H48.2688L41.9648 8.504V23H37.5488V0.599998H42.0928L48.5248 11.192L54.9248 0.599998H59.4688ZM68.0585 18.776H77.4985V23H63.6425V0.599998H77.3385V4.824H68.0585V9.592H76.5385V13.752H68.0585V18.776ZM98.3393 0.599998L90.6593 14.264V23H86.2753V14.264L78.6273 0.599998H83.6193L88.4833 9.944L93.3473 0.599998H98.3393ZM15.04 39.6H19.456V62H16.096L6.496 48.304V62H2.08V39.6H5.44L15.04 53.264V39.6ZM28.0273 57.776H37.4673V62H23.6113V39.6H37.3073V43.824H28.0273V48.592H36.5073V52.752H28.0273V57.776ZM45.252 62L38.98 39.6H43.62L47.908 56.208L52.58 39.6H56.356L61.06 56.208L65.348 39.6H69.988L63.716 62H58.692L54.468 47.216L50.276 62H45.252ZM88.1968 62.448C85.9781 62.448 84.1114 61.9573 82.5968 60.976C81.0821 59.9733 80.0154 58.6187 79.3968 56.912L83.1727 54.704C84.0474 56.9867 85.7648 58.128 88.3248 58.128C89.5621 58.128 90.4688 57.904 91.0448 57.456C91.6208 57.008 91.9088 56.4427 91.9088 55.76C91.9088 54.9707 91.5568 54.3627 90.8528 53.936C90.1488 53.488 88.8901 53.008 87.0768 52.496C86.0741 52.1973 85.2208 51.8987 84.5168 51.6C83.8341 51.3013 83.1408 50.9067 82.4368 50.416C81.7541 49.904 81.2314 49.264 80.8688 48.496C80.5061 47.728 80.3248 46.832 80.3248 45.808C80.3248 43.7813 81.0394 42.1707 82.4688 40.976C83.9194 39.76 85.6581 39.152 87.6848 39.152C89.4981 39.152 91.0874 39.6 92.4528 40.496C93.8394 41.3707 94.9168 42.5973 95.6848 44.176L91.9728 46.32C91.0768 44.4 89.6474 43.44 87.6848 43.44C86.7674 43.44 86.0421 43.6533 85.5088 44.08C84.9968 44.4853 84.7408 45.0187 84.7408 45.68C84.7408 46.384 85.0288 46.96 85.6048 47.408C86.2021 47.8347 87.3328 48.304 88.9968 48.816C89.6794 49.0293 90.1914 49.2 90.5328 49.328C90.8954 49.4347 91.3754 49.616 91.9728 49.872C92.5914 50.1067 93.0608 50.3307 93.3808 50.544C93.7221 50.7573 94.1061 51.0453 94.5328 51.408C94.9594 51.7707 95.2794 52.144 95.4928 52.528C95.7274 52.912 95.9194 53.3813 96.0688 53.936C96.2394 54.4693 96.3248 55.056 96.3248 55.696C96.3248 57.7653 95.5674 59.408 94.0528 60.624C92.5594 61.84 90.6074 62.448 88.1968 62.448ZM109.673 62.448C106.302 62.448 103.518 61.328 101.321 59.088C99.1234 56.848 98.0247 54.0853 98.0247 50.8C98.0247 47.4933 99.1234 44.7307 101.321 42.512C103.518 40.272 106.302 39.152 109.673 39.152C111.699 39.152 113.566 39.632 115.273 40.592C117.001 41.5307 118.345 42.8107 119.305 44.432L115.497 46.64C114.942 45.6373 114.153 44.8587 113.129 44.304C112.105 43.728 110.953 43.44 109.673 43.44C107.497 43.44 105.737 44.1227 104.393 45.488C103.07 46.8533 102.409 48.624 102.409 50.8C102.409 52.9547 103.07 54.7147 104.393 56.08C105.737 57.4453 107.497 58.128 109.673 58.128C110.953 58.128 112.105 57.8507 113.129 57.296C114.174 56.72 114.963 55.9413 115.497 54.96L119.305 57.168C118.345 58.7893 117.011 60.08 115.305 61.04C113.598 61.9787 111.721 62.448 109.673 62.448ZM134.754 39.6H139.138V62H134.754V52.72H126.434V62H122.018V39.6H126.434V48.496H134.754V39.6ZM162.147 59.088C159.885 61.328 157.133 62.448 153.891 62.448C150.648 62.448 147.896 61.328 145.635 59.088C143.395 56.8267 142.275 54.064 142.275 50.8C142.275 47.536 143.395 44.784 145.635 42.544C147.896 40.2827 150.648 39.152 153.891 39.152C157.133 39.152 159.885 40.2827 162.147 42.544C164.408 44.784 165.539 47.536 165.539 50.8C165.539 54.064 164.408 56.8267 162.147 59.088ZM148.739 56.08C150.125 57.4453 151.843 58.128 153.891 58.128C155.939 58.128 157.656 57.4453 159.043 56.08C160.429 54.6933 161.123 52.9333 161.123 50.8C161.123 48.6667 160.429 46.9067 159.043 45.52C157.656 44.1333 155.939 43.44 153.891 43.44C151.843 43.44 150.125 44.1333 148.739 45.52C147.352 46.9067 146.659 48.6667 146.659 50.8C146.659 52.9333 147.352 54.6933 148.739 56.08ZM187.491 59.088C185.229 61.328 182.477 62.448 179.235 62.448C175.992 62.448 173.24 61.328 170.979 59.088C168.739 56.8267 167.618 54.064 167.618 50.8C167.618 47.536 168.739 44.784 170.979 42.544C173.24 40.2827 175.992 39.152 179.235 39.152C182.477 39.152 185.229 40.2827 187.491 42.544C189.752 44.784 190.883 47.536 190.883 50.8C190.883 54.064 189.752 56.8267 187.491 59.088ZM174.083 56.08C175.469 57.4453 177.187 58.128 179.235 58.128C181.283 58.128 183 57.4453 184.387 56.08C185.773 54.6933 186.467 52.9333 186.467 50.8C186.467 48.6667 185.773 46.9067 184.387 45.52C183 44.1333 181.283 43.44 179.235 43.44C177.187 43.44 175.469 44.1333 174.083 45.52C172.696 46.9067 172.003 48.6667 172.003 50.8C172.003 52.9333 172.696 54.6933 174.083 56.08ZM198.402 57.776H206.946V62H193.986V39.6H198.402V57.776Z" fill="#7F1222"/>
</svg>
