<svg width="154" height="53" viewBox="0 0 154 53" fill="none" xmlns="http://www.w3.org/2000/svg">
<path d="M7.20974 0.336197C7.27374 0.336197 7.45884 0.392186 7.76504 0.504163L8.34529 0.720122L8.70623 0.768112L9.13776 0.744117L9.61682 0.696127C9.87282 0.696127 10.0286 0.888089 10.0841 1.27201L10.055 2.23183L10.1417 2.97568C10.1787 3.23164 10.2476 3.47959 10.3483 3.71954L10.5762 5.54319C10.5869 6.08708 10.7219 6.44701 10.9814 6.62298L11.8991 6.91092C12.14 6.95892 12.2638 7.15088 12.2704 7.48681C12.2754 7.74276 12.1438 7.96672 11.8756 8.15868C11.6234 8.35065 11.3613 8.44663 11.0893 8.44663L11.102 9.0945C11.1114 9.57441 11.1759 10.0063 11.2955 10.3903C11.33 10.5182 11.4067 10.7582 11.5256 11.1101L11.8071 11.9979L12.0137 12.7418L12.1248 13.5096C12.1795 13.8456 12.2723 14.0935 12.4035 14.2535L12.8699 14.7814C13.0663 15.0054 13.1659 15.1893 13.1687 15.3333C13.1731 15.5573 13.1071 15.8612 12.9706 16.2451C12.8195 16.693 12.656 16.925 12.4803 16.941C11.9043 16.941 11.5319 16.717 11.3631 16.2691L11.2572 15.7652L11.2727 15.3333C11.2856 15.1733 11.2986 15.0214 11.3117 14.8774C11.308 14.6854 11.2116 14.2615 11.0227 13.6056L10.7135 12.5258C10.5773 12.1099 10.3544 11.3501 10.0447 10.2463C9.92322 9.76637 9.80618 9.51042 9.69355 9.47843H9.02155L8.68508 9.45443C8.39677 9.43844 8.13434 9.51842 7.8978 9.69439L7.0936 10.2943C6.84043 10.4382 6.33863 10.5502 5.58821 10.6302C4.90178 10.7102 4.40861 10.8542 4.1087 11.0621C3.65163 11.4141 3.3999 12.0379 3.35352 12.9338L3.3366 13.2937L3.34368 13.6536L3.37475 14.0136C3.39642 14.3015 3.30891 14.7334 3.11224 15.3093L2.45305 17.1809C2.18016 17.9488 1.93971 18.3327 1.73171 18.3327C0.979708 18.3327 0.597257 18.0048 0.584357 17.3489C0.578694 17.061 0.674041 16.621 0.870399 16.0292L1.41383 14.3735L1.65707 13.3177L1.75913 12.4059L1.75441 12.1659C1.75284 12.0859 1.69417 11.9499 1.57839 11.758L1.37978 11.4221L1.27434 10.9421C1.26742 10.5902 1.51776 10.3023 2.02535 10.0783L2.81075 9.74238C3.15771 9.48643 3.42059 9.02252 3.59937 8.35065L4.13526 6.31104L5.26116 2.54377C5.36655 2.20783 5.74817 1.67994 6.40601 0.960075L6.80551 0.528158C6.93162 0.432177 7.06637 0.36819 7.20974 0.336197ZM7.84608 2.18384C7.55808 2.18384 7.32059 2.31181 7.13363 2.56776L6.83532 3.26363L6.59208 4.31943L5.87782 5.83113L5.79597 6.55099C5.78123 6.61498 5.70406 6.75895 5.56447 6.98291L5.28544 7.43882L4.45731 9.26247C4.68319 9.35845 4.85214 9.40644 4.96414 9.40644C5.07614 9.40644 5.25088 9.34245 5.48836 9.21448L6.36692 8.73457L7.70384 8.37464C8.26101 8.23067 8.86209 7.87874 9.50708 7.31885L9.3409 6.19106C9.28943 6.0151 9.21977 5.72715 9.13191 5.32723L8.99114 4.27143C8.96376 2.8797 8.58208 2.18384 7.84608 2.18384ZM15.5673 9.0945L15.5537 9.6224L15.5612 10.0063C15.5628 10.0863 15.557 10.1983 15.5439 10.3423C15.5304 10.4702 15.5244 10.5742 15.526 10.6542L15.5331 11.0141C15.5353 11.1261 15.5223 11.2781 15.494 11.47L15.5101 12.2859C15.5195 12.7658 15.5944 13.3177 15.7347 13.9416C15.8231 14.3735 15.9556 14.5974 16.1319 14.6134C16.5639 14.6134 16.9938 14.1015 17.4217 13.0777C17.6814 12.4539 17.9052 12.0379 18.0931 11.83C18.4533 11.4301 18.8931 11.0141 19.4126 10.5822C20.231 9.89435 20.7683 9.55041 21.0243 9.55041C21.1203 9.55041 21.2422 9.6464 21.3899 9.83836C21.5377 10.0303 21.6127 10.1823 21.6149 10.2943C21.6181 10.4542 21.4463 10.6702 21.0997 10.9421L20.0592 11.734L19.327 12.3339C19.109 12.6378 19.0053 13.0617 19.016 13.6056C19.0425 14.9494 19.7197 15.6212 21.0477 15.6212C22.0557 15.6212 23.039 15.1813 23.9977 14.3015C24.3278 13.9976 24.6688 13.8456 25.0208 13.8456C25.1808 13.8456 25.3047 14.0455 25.3926 14.4455C25.3781 14.5255 25.3163 14.6374 25.2072 14.7814C25.1447 14.8614 24.901 15.0773 24.4759 15.4293C23.7989 15.9892 23.2623 16.3651 22.8661 16.5571C22.2481 16.861 21.5631 17.013 20.8111 17.013C20.1871 17.013 19.5678 16.845 18.9532 16.5091C18.177 16.0931 17.7812 15.4933 17.7658 14.7094C16.7362 16.0532 16.0374 16.725 15.6694 16.725C15.2374 16.725 14.9684 16.4691 14.8623 15.9572L14.5173 14.2775L14.3125 13.6296L14.2565 13.2217L14.2748 12.9338L14.2913 12.5498L14.1802 11.782L14.2154 11.1341L14.2775 10.6302L14.2634 9.91034C14.2549 9.47843 14.2734 9.19848 14.3188 9.07051C14.3941 8.83055 14.5998 8.71058 14.9358 8.71058C15.1918 8.71058 15.3359 8.71857 15.3682 8.73457C15.4812 8.78256 15.5475 8.90254 15.5673 9.0945ZM28.2572 7.63079C28.6892 7.63079 29.0029 7.71877 29.1984 7.89473L29.8093 8.44663L30.1255 8.66259C30.2225 8.71058 30.2727 8.82255 30.2761 8.99852L30.358 9.50242C30.3772 9.66239 30.4429 9.75038 30.5552 9.76637C30.7792 9.76637 30.994 9.70238 31.1994 9.57441L31.6757 9.38245C31.8997 9.38245 32.0889 9.6464 32.2432 10.1743C32.4315 10.7982 32.5144 11.3501 32.4918 11.83L32.4749 12.1899C32.4617 12.3339 32.4481 12.4539 32.434 12.5498L32.4881 12.8618L32.6378 13.1497L32.762 13.3657L32.771 13.8216L32.7531 14.1335L32.7564 14.3015L32.8124 14.7094C32.8319 14.8854 32.8997 15.0773 33.0158 15.2853L33.2647 15.7412L33.5349 16.0532L33.7838 16.5091L33.8893 16.989L33.8211 17.1809L33.6084 17.3489L33.3702 17.4449H32.9142C32.8013 17.3969 32.6225 17.2529 32.3778 17.013L31.9843 16.5331L31.9735 15.9812L31.7734 15.5732C31.689 15.3493 31.5703 15.0054 31.4171 14.5414L31.3875 14.2535L31.4049 13.9176C31.4262 13.3737 31.3085 13.0857 31.0519 13.0537C30.9885 13.0857 30.9014 13.1337 30.7907 13.1977L30.5319 13.4617L30.1738 13.5576L29.7408 13.5096C29.5168 13.5096 29.2743 13.7896 29.0134 14.3495C28.9227 14.6214 28.6808 14.9334 28.2878 15.2853C27.9891 15.5573 27.6823 15.8212 27.3673 16.0772L26.8718 16.5091L26.4657 16.605L26.0813 16.5811H25.5293C25.2877 16.5011 25.0434 16.2851 24.7965 15.9332C24.5493 15.5653 24.4231 15.2533 24.4181 14.9974C24.4146 14.8214 24.4576 14.5654 24.547 14.2295L24.7926 13.2937C24.9403 12.6698 25.2154 11.606 25.6178 10.1023C26.2894 8.45463 27.1692 7.63079 28.2572 7.63079ZM27.9735 9.07051C27.5255 9.07051 27.1558 9.39044 26.8644 10.0303L26.4348 11.3741C26.3439 11.63 26.2175 12.1179 26.0556 12.8378L25.8266 14.6134L25.9047 14.9254C25.9555 15.0693 26.0529 15.1413 26.1969 15.1413C26.6769 15.1413 27.3461 14.5894 28.2044 13.4857C29.0787 12.3819 29.5108 11.574 29.5007 11.0621C29.4878 10.4062 29.2449 9.85436 28.7721 9.40644C28.5437 9.18249 28.2775 9.07051 27.9735 9.07051ZM38.5895 8.95053C39.1015 8.95053 39.5213 9.14249 39.8488 9.52642C40.176 9.89435 40.3447 10.3343 40.3548 10.8462C40.3686 11.55 40.1995 11.902 39.8475 11.902C39.5275 11.902 39.3501 11.83 39.3153 11.686L39.3557 11.3021L39.4211 10.9661C39.4189 10.8542 39.3206 10.7342 39.126 10.6062C38.9485 10.5262 38.7554 10.4702 38.5467 10.4382C38.2587 10.4382 37.8727 10.7422 37.3887 11.3501C36.9043 11.942 36.665 12.3819 36.6706 12.6698C36.6813 13.2137 37.1027 13.4857 37.9347 13.4857C38.0947 13.4857 38.3334 13.4217 38.6509 13.2937C38.9844 13.1657 39.207 13.0937 39.3187 13.0777C39.5737 13.0297 39.7972 13.0057 39.9892 13.0057C40.5172 13.0057 40.8652 13.2057 41.033 13.6056C41.1338 13.8456 41.1912 14.3255 41.2054 15.0454L41.2195 15.7652C41.2264 16.1171 41.2156 16.3811 41.1871 16.5571L41.0159 17.6129L40.9787 18.1647L40.99 18.7406L41.0225 19.1726C41.1936 21.3641 40.8033 23.4837 39.8516 25.5313C39.1304 27.099 38.3859 27.8829 37.6179 27.8829C36.5139 27.8829 35.6467 27.7229 35.0164 27.403L32.6408 26.2032C32.3337 26.0432 31.8287 25.5873 31.1259 24.8355C30.4074 24.0996 30.0297 23.6037 29.9927 23.3477L30.1282 22.9158L30.194 22.6039L30.1408 22.3399L30.0651 22.148C30.061 21.94 30.2823 21.804 30.729 21.7401C31.433 21.7401 31.7883 21.908 31.7949 22.244L31.6811 22.5559C31.5885 22.7319 31.5431 22.8598 31.5446 22.9398C31.5569 23.5637 32.2522 24.3396 33.6304 25.2674C34.96 26.1632 35.9608 26.6111 36.6328 26.6111C37.7528 26.6111 38.6038 25.5393 39.1856 23.3957C39.6627 21.6201 39.8576 20.1404 39.7703 18.9566L39.6728 17.6608C39.6715 17.5969 39.7013 17.4849 39.7622 17.3249L39.9678 16.797L39.8854 16.2691L39.8285 15.8132L39.8825 14.9014C39.8926 14.5974 39.6328 14.4055 39.1032 14.3255L38.1526 14.8054C37.8675 14.9494 37.4289 15.0214 36.8369 15.0214C35.8929 15.0214 35.4094 14.4375 35.3864 13.2697C35.3622 12.0379 35.7731 10.9661 36.6192 10.0543C37.3087 9.31846 37.9655 8.95053 38.5895 8.95053ZM44.6611 15.3093L43.9463 15.5732L43.2781 15.7652C42.7661 15.7652 42.5044 15.4773 42.4931 14.9014C42.4877 14.6294 42.676 14.4375 43.0578 14.3255C43.5826 14.1655 43.947 13.9816 44.1509 13.7736C43.6865 12.9418 43.4427 11.934 43.4194 10.7502C43.4091 10.2223 43.5574 9.6304 43.8645 8.97453C44.2174 8.20667 44.6339 7.82275 45.1139 7.82275C45.7859 7.82275 46.3203 8.15068 46.7172 8.80656C47.0642 9.36645 47.2447 9.99833 47.2585 10.7022C47.2862 12.1099 46.7493 13.2857 45.6479 14.2295C45.8321 14.6454 46.3435 15.0214 47.1821 15.3573C47.8594 15.6292 48.5021 15.7652 49.1101 15.7652C49.8461 15.7652 50.5231 15.6132 51.1411 15.3093C51.3937 15.1333 51.7649 14.8934 52.255 14.5894L52.6818 14.3255L53.0874 14.2055C53.4234 14.2055 53.6096 14.3175 53.646 14.5414C53.6514 14.8134 53.4809 15.0933 53.1345 15.3813L52.3524 15.8852L51.1671 16.629C50.5958 16.869 49.5902 16.989 48.1502 16.989C46.7422 16.989 45.5791 16.4291 44.6611 15.3093ZM45.1626 12.7418C45.3041 12.6138 45.4051 12.4619 45.4656 12.2859L45.6473 11.758C45.7985 11.3101 45.8704 10.9022 45.8632 10.5342C45.849 9.81436 45.61 9.45443 45.146 9.45443C45.0038 9.55041 44.902 9.66239 44.8406 9.79037L44.6335 10.2463L44.6152 10.5342L44.6482 10.9901L44.6331 11.446L44.6633 11.758C44.6981 11.902 44.7649 12.0459 44.8638 12.1899L45.1626 12.7418ZM58.8692 8.5666C59.2052 8.5666 59.4385 8.63059 59.569 8.75857C59.6512 8.87055 59.711 9.06251 59.7483 9.33446L59.7347 9.86235L59.7099 11.0381L59.6779 11.854L59.6403 12.3819L59.5609 14.4455C59.5505 14.7334 59.6094 14.8774 59.7374 14.8774C60.0414 14.8774 60.7869 13.7336 61.9739 11.446L62.8293 9.79037C63.0762 9.32646 63.4156 9.0945 63.8476 9.0945C64.3916 9.0945 64.6572 9.58241 64.6444 10.5582L64.6388 11.494L64.6799 13.5816C64.7054 14.8774 65.1901 15.5253 66.1341 15.5253C66.6781 15.5253 67.186 15.3173 67.6578 14.9014L68.1769 14.4455C68.4285 14.2215 68.6343 14.1095 68.7943 14.1095C68.8903 14.1095 68.9874 14.1655 69.0856 14.2775C69.1995 14.3735 69.2573 14.4695 69.2592 14.5654C69.2693 15.0773 68.7835 15.5972 67.8019 16.1251C66.931 16.5891 66.1996 16.821 65.6076 16.821C64.5836 16.821 63.9255 16.3091 63.6334 15.2853C63.4956 14.7894 63.4295 13.8696 63.4351 12.5258L63.4421 11.662C63.4365 11.3741 63.4015 11.2221 63.3372 11.2061C63.195 11.3021 63.0933 11.4141 63.0318 11.542L62.6163 12.3819L62.1095 13.4617C62.0016 13.6696 61.8159 13.9896 61.5524 14.4215L60.5746 15.9572C60.233 16.4851 59.7902 16.749 59.2462 16.749C58.8782 16.749 58.6274 16.605 58.4937 16.3171C58.4435 16.2051 58.4145 15.9492 58.4066 15.5493L58.3915 14.7814L58.4013 14.0615L58.3373 13.2457L58.3702 12.4778L58.6002 10.7502L58.5484 10.5582L58.4486 10.3663L58.3503 10.2463C58.1263 10.2463 57.8546 10.6702 57.5353 11.518L57.0206 13.4137C56.3942 15.7332 55.457 16.893 54.209 16.893C53.841 16.893 53.5187 16.773 53.2419 16.5331C52.9812 16.2931 52.8472 15.9892 52.84 15.6212C52.8312 15.1733 53.0183 14.9254 53.4014 14.8774C53.5614 14.8774 53.7153 14.9734 53.863 15.1653L53.9863 15.3333C54.0679 15.4133 54.237 15.4693 54.4936 15.5013C55.0856 15.5013 55.5836 14.7894 55.9876 13.3657L56.8176 10.4142C57.4334 9.18249 58.1172 8.5666 58.8692 8.5666ZM70.6786 7.22286C71.6706 7.22286 72.1563 8.32665 72.1357 10.5342L72.1292 11.4221C72.1201 11.774 72.1375 12.2539 72.1815 12.8618C72.2113 13.5656 72.2288 14.0455 72.2338 14.3015C72.248 15.0214 72.375 15.3813 72.615 15.3813C73.175 15.3813 73.7243 14.8374 74.2629 13.7496L75.5555 11.1341L76.3879 9.52642C76.6959 8.91854 77.0579 8.6146 77.4739 8.6146C78.0819 8.6146 78.4757 9.1105 78.6552 10.1023L79.0883 12.5978L79.6818 14.7094C79.8713 15.3973 80.2072 15.7972 80.6894 15.9092H81.0014C81.5122 15.8452 81.9474 15.6052 82.3073 15.1893C82.902 14.5175 83.3514 14.1815 83.6554 14.1815C83.9754 14.1815 84.1397 14.3975 84.1482 14.8294C84.1538 15.1173 83.7154 15.6052 82.833 16.2931C81.9502 16.965 81.3488 17.3009 81.0288 17.3009C80.0208 17.3009 79.3248 16.893 78.9407 16.0772L78.4145 14.9494L78.0357 13.9896L77.78 11.9739C77.6469 10.9022 77.4604 10.3663 77.2204 10.3663C77.0924 10.3663 76.9448 10.5902 76.7776 11.0381C76.489 11.822 76.298 12.2779 76.2045 12.4059L75.6243 13.4137C75.29 14.3095 74.8729 15.0693 74.3732 15.6932C73.7022 16.5571 72.9987 16.989 72.2627 16.989C71.5267 16.989 71.1495 16.5251 71.1313 15.5972L71.1063 14.3255L70.898 9.83836C70.8666 9.05451 70.7066 8.64659 70.4179 8.6146C70.0499 8.6146 69.5899 8.81456 69.0377 9.21448L68.5432 9.69439C68.3863 9.85436 68.2519 9.93434 68.1399 9.93434C68.0279 9.93434 67.899 9.88635 67.7531 9.79037C67.6069 9.67839 67.5247 9.56641 67.5065 9.45443C67.5027 9.26247 67.5792 9.0865 67.7361 8.92653L68.1624 8.63859C68.3842 8.52661 68.7618 8.19868 69.2951 7.65478C69.5774 7.36684 70.0386 7.22286 70.6786 7.22286ZM90.8527 7.00691C91.0607 7.00691 91.2383 7.08689 91.3854 7.24686L91.4857 7.46282C91.5001 8.19868 91.3362 8.81456 90.994 9.31046L90.8307 9.55041C90.7222 9.72638 90.6472 9.98233 90.6058 10.3183L90.5254 11.1101C90.5295 11.3181 90.4787 11.582 90.373 11.902L90.7777 11.734C90.8567 11.686 90.9999 11.646 91.2073 11.614C91.7033 11.614 91.9637 11.838 91.9885 12.2859C91.9917 12.4459 91.9219 12.5578 91.7791 12.6218C91.6361 12.6698 91.485 12.7178 91.326 12.7658L90.8987 13.0057C90.7563 13.0857 90.573 13.1257 90.349 13.1257L90.3327 14.7334C90.3245 15.1333 90.3057 15.3973 90.2762 15.5253L90.2348 15.8612C90.2367 15.9572 90.2871 16.0772 90.3859 16.2211C90.4848 16.3651 90.5356 16.5091 90.5384 16.653C90.5447 16.973 90.3086 17.1729 89.8302 17.2529C89.3182 17.2529 89.0434 17.109 89.0057 16.821L89.0603 15.9332L89.0301 15.6212L88.9976 15.1893L89.0164 14.9254L89.0795 14.4695L89.1316 13.4617C88.6535 13.5576 88.1905 13.6056 87.7425 13.6056C87.2145 13.6056 86.6451 13.5336 86.0342 13.3897C85.2948 13.2137 84.7864 12.9897 84.509 12.7178C84.0682 12.2699 83.8366 11.478 83.8143 10.3423C83.8058 9.91034 83.8989 9.35845 84.0937 8.68658C84.3484 7.80675 84.6518 7.36684 85.0038 7.36684C85.4678 7.36684 85.7029 7.52681 85.7092 7.84674L85.6904 8.11069L85.5535 8.47062L85.1677 9.5984L85.0863 10.3423C85.1023 11.1581 85.2329 11.694 85.4779 11.9499C85.6084 12.0779 85.9386 12.1899 86.4685 12.2859L87.1669 12.4059L87.7918 12.4539L88.3914 12.4299C88.5674 12.4299 88.7981 12.3659 89.0836 12.2379C89.1924 11.2621 89.3649 10.2703 89.6011 9.26247C89.9702 7.69477 90.3874 6.94292 90.8527 7.00691ZM94.3955 15.3093L93.6807 15.5732L93.0125 15.7652C92.5005 15.7652 92.2388 15.4773 92.2275 14.9014C92.2221 14.6294 92.4103 14.4375 92.7921 14.3255C93.317 14.1655 93.6814 13.9816 93.8853 13.7736C93.4209 12.9418 93.1771 11.934 93.1538 10.7502C93.1434 10.2223 93.2918 9.6304 93.5989 8.97453C93.9518 8.20667 94.3682 7.82275 94.8482 7.82275C95.5202 7.82275 96.0547 8.15068 96.4516 8.80656C96.7986 9.36645 96.979 9.99833 96.9929 10.7022C97.0206 12.1099 96.4837 13.2857 95.3823 14.2295C95.5664 14.6454 96.0778 15.0214 96.9164 15.3573C97.5938 15.6292 98.2365 15.7652 98.8445 15.7652C99.5805 15.7652 100.257 15.6132 100.875 15.3093C101.128 15.1333 101.499 14.8934 101.989 14.5894L102.416 14.3255L102.822 14.2055C103.158 14.2055 103.344 14.3175 103.38 14.5414C103.386 14.8134 103.215 15.0933 102.869 15.3813L102.087 15.8852L100.901 16.629C100.33 16.869 99.3245 16.989 97.8845 16.989C96.4765 16.989 95.3135 16.4291 94.3955 15.3093ZM94.897 12.7418C95.0385 12.6138 95.1395 12.4619 95.2 12.2859L95.3816 11.758C95.5328 11.3101 95.6048 10.9022 95.5976 10.5342C95.5834 9.81436 95.3443 9.45443 94.8803 9.45443C94.7382 9.55041 94.6364 9.66239 94.5749 9.79037L94.3679 10.2463L94.3496 10.5342L94.3825 10.9901L94.3675 11.446L94.3976 11.758C94.4325 11.902 94.4993 12.0459 94.5981 12.1899L94.897 12.7418ZM105.529 8.44663H105.937C106.145 8.44663 106.323 8.55861 106.472 8.78256C106.636 8.99052 106.736 9.21448 106.773 9.45443C106.778 9.72638 106.662 9.88635 106.423 9.93434H106.111C105.934 9.88635 105.805 9.84636 105.724 9.81436C105.546 9.71838 105.417 9.67039 105.337 9.67039C104.857 9.67039 104.529 10.0543 104.352 10.8222C104.264 11.2061 104.228 11.846 104.246 12.7418C104.274 14.1815 105.056 14.9014 106.592 14.9014C107.232 14.9014 107.955 14.6214 108.76 14.0615C109.423 13.5976 110.012 13.0617 110.528 12.4539C110.747 12.1979 111.049 12.0699 111.433 12.0699C111.641 12.0699 111.748 12.2219 111.753 12.5258C111.759 12.8138 111.66 13.0537 111.456 13.2457L110.867 13.8216C110.553 14.1255 110.043 14.6214 109.336 15.3093C108.484 15.9172 107.474 16.2211 106.306 16.2211C104.05 16.2211 102.898 15.0134 102.851 12.5978L102.833 11.686C102.823 11.1581 102.962 10.5422 103.253 9.83836C103.462 9.0865 104.221 8.62259 105.529 8.44663ZM113.185 9.0945L113.171 9.6224L113.178 10.0063C113.18 10.0863 113.174 10.1983 113.161 10.3423C113.148 10.4702 113.142 10.5742 113.143 10.6542L113.15 11.0141C113.152 11.1261 113.139 11.2781 113.111 11.47L113.127 12.2859C113.137 12.7658 113.212 13.3177 113.352 13.9416C113.44 14.3735 113.573 14.5974 113.749 14.6134C114.181 14.6134 114.611 14.1015 115.039 13.0777C115.299 12.4539 115.522 12.0379 115.71 11.83C116.07 11.4301 116.51 11.0141 117.03 10.5822C117.848 9.89435 118.385 9.55041 118.641 9.55041C118.737 9.55041 118.859 9.6464 119.007 9.83836C119.155 10.0303 119.23 10.1823 119.232 10.2943C119.235 10.4542 119.063 10.6702 118.717 10.9421L117.676 11.734L116.944 12.3339C116.726 12.6378 116.623 13.0617 116.633 13.6056C116.66 14.9494 117.337 15.6212 118.665 15.6212C119.673 15.6212 120.656 15.1813 121.615 14.3015C121.945 13.9976 122.286 13.8456 122.638 13.8456C122.798 13.8456 122.922 14.0455 123.01 14.4455C122.995 14.5255 122.934 14.6374 122.824 14.7814C122.762 14.8614 122.518 15.0773 122.093 15.4293C121.416 15.9892 120.88 16.3651 120.483 16.5571C119.865 16.861 119.18 17.013 118.428 17.013C117.804 17.013 117.185 16.845 116.57 16.5091C115.794 16.0931 115.398 15.4933 115.383 14.7094C114.353 16.0532 113.655 16.725 113.287 16.725C112.855 16.725 112.586 16.4691 112.479 15.9572L112.134 14.2775L111.93 13.6296L111.874 13.2217L111.892 12.9338L111.908 12.5498L111.797 11.782L111.833 11.1341L111.895 10.6302L111.881 9.91034C111.872 9.47843 111.891 9.19848 111.936 9.07051C112.011 8.83055 112.217 8.71058 112.553 8.71058C112.809 8.71058 112.953 8.71857 112.985 8.73457C113.098 8.78256 113.165 8.90254 113.185 9.0945ZM124.186 7.22286C125.178 7.22286 125.664 8.32665 125.644 10.5342L125.637 11.4221C125.628 11.774 125.645 12.2539 125.689 12.8618C125.719 13.5656 125.737 14.0455 125.742 14.3015C125.756 15.0214 125.883 15.3813 126.123 15.3813C126.683 15.3813 127.232 14.8374 127.771 13.7496L129.063 11.1341L129.896 9.52642C130.204 8.91854 130.566 8.6146 130.982 8.6146C131.59 8.6146 131.984 9.1105 132.163 10.1023L132.596 12.5978L133.19 14.7094C133.379 15.3973 133.715 15.7972 134.197 15.9092H134.509C135.02 15.8452 135.455 15.6052 135.815 15.1893C136.41 14.5175 136.859 14.1815 137.163 14.1815C137.483 14.1815 137.647 14.3975 137.656 14.8294C137.662 15.1173 137.223 15.6052 136.341 16.2931C135.458 16.965 134.857 17.3009 134.537 17.3009C133.529 17.3009 132.833 16.893 132.449 16.0772L131.922 14.9494L131.543 13.9896L131.288 11.9739C131.155 10.9022 130.968 10.3663 130.728 10.3663C130.6 10.3663 130.453 10.5902 130.285 11.0381C129.997 11.822 129.806 12.2779 129.712 12.4059L129.132 13.4137C128.798 14.3095 128.381 15.0693 127.881 15.6932C127.21 16.5571 126.506 16.989 125.77 16.989C125.034 16.989 124.657 16.5251 124.639 15.5972L124.614 14.3255L124.406 9.83836C124.374 9.05451 124.214 8.64659 123.926 8.6146C123.558 8.6146 123.098 8.81456 122.546 9.21448L122.051 9.69439C121.894 9.85436 121.76 9.93434 121.648 9.93434C121.536 9.93434 121.407 9.88635 121.261 9.79037C121.115 9.67839 121.032 9.56641 121.014 9.45443C121.01 9.26247 121.087 9.0865 121.244 8.92653L121.67 8.63859C121.892 8.52661 122.27 8.19868 122.803 7.65478C123.085 7.36684 123.546 7.22286 124.186 7.22286ZM139.613 7.22286C140.605 7.22286 141.09 8.32665 141.07 10.5342L141.063 11.4221C141.054 11.774 141.072 12.2539 141.116 12.8618C141.146 13.5656 141.163 14.0455 141.168 14.3015C141.182 15.0214 141.309 15.3813 141.549 15.3813C142.237 15.3813 143.048 14.2935 143.981 12.1179C144.975 9.78237 145.784 8.6146 146.408 8.6146C147.016 8.6146 147.41 9.1105 147.589 10.1023L148.022 12.5978L148.616 14.7094C148.806 15.3973 149.141 15.7972 149.624 15.9092H149.936C150.446 15.8452 150.882 15.6052 151.241 15.1893C151.836 14.5175 152.286 14.1815 152.59 14.1815C152.91 14.1815 153.074 14.3975 153.082 14.8294C153.088 15.1173 152.65 15.6052 151.767 16.2931C150.884 16.965 150.283 17.3009 149.963 17.3009C149.067 17.3009 148.345 16.805 147.798 15.8132C147.449 15.1893 147.058 13.9976 146.623 12.2379L146.476 10.8702C146.469 10.4862 146.353 10.2943 146.129 10.2943C146.017 10.2943 145.863 10.5662 145.665 11.1101C145.574 11.3501 145.422 11.742 145.208 12.2859L143.447 15.4533C142.731 16.4771 141.981 16.989 141.197 16.989C140.461 16.989 140.084 16.5251 140.065 15.5972L140.04 14.3255L139.832 9.83836C139.801 9.05451 139.641 8.64659 139.352 8.6146C139.016 8.6146 138.526 8.91054 137.882 9.50242C137.567 9.79037 137.298 9.93434 137.074 9.93434C136.962 9.93434 136.833 9.88635 136.687 9.79037C136.541 9.67839 136.459 9.56641 136.441 9.45443C136.437 9.26247 136.513 9.0865 136.67 8.92653L137.097 8.63859C137.318 8.52661 137.696 8.19868 138.229 7.65478C138.512 7.36684 138.973 7.22286 139.613 7.22286ZM147.33 3.02368C147.746 3.02368 147.981 3.19164 148.036 3.52758C148.04 3.71954 147.663 4.10347 146.907 4.67936L145.701 5.59118C145.417 5.79914 144.796 5.9831 143.84 6.14307C143.058 6.27105 142.387 6.33504 141.827 6.33504C141.395 6.33504 141.162 6.24705 141.126 6.07109C141.116 5.55919 141.27 5.26324 141.589 5.18326L142.14 5.13527L142.788 5.15926C143.765 5.19126 144.617 4.9753 145.343 4.51139L146.474 3.4316L146.758 3.21564C146.916 3.11966 147.107 3.05567 147.33 3.02368ZM22.1461 33.1698C22.8818 33.1538 23.2666 34.0097 23.3006 35.7373L23.3176 36.6012L23.3501 37.0331L23.336 37.537C23.3389 37.681 23.3887 37.777 23.4857 37.8249H23.6537C23.8127 37.777 24.0292 37.393 24.303 36.6732C24.2949 36.2572 24.369 35.9613 24.5256 35.7853C24.6194 35.6734 24.8962 35.5134 25.3561 35.3054L25.8319 35.0895C25.9749 35.0415 26.1582 35.0015 26.3815 34.9695C26.8295 34.9695 27.2267 35.2334 27.5731 35.7613C27.7218 36.0013 27.9468 36.4572 28.248 37.1291L28.625 37.9929C28.9049 38.3928 29.2768 38.5928 29.7408 38.5928C30.0768 38.5928 30.4907 38.4888 30.9827 38.2809C31.4743 38.0569 31.8457 37.8249 32.097 37.585L32.4739 37.2251C32.7418 37.0171 33.0198 36.9131 33.3078 36.9131C33.5016 37.0091 33.6246 37.1611 33.6767 37.369C33.6852 37.8009 33.4212 38.2089 32.8848 38.5928L31.6778 39.4566C31.0287 39.8086 30.2882 39.9845 29.4562 39.9845C28.7042 39.9845 28.1308 39.7126 27.7361 39.1687C27.5717 38.9447 27.3615 38.4248 27.1054 37.609L26.7783 36.8411C26.5957 36.5052 26.4241 36.3212 26.2635 36.2892C25.6715 36.2892 25.2571 36.7771 25.0203 37.753C24.6495 39.2407 24.1202 39.9845 23.4322 39.9845C22.6802 39.9845 22.2965 39.5926 22.281 38.8088L22.2678 38.1369L22.1149 37.681L22.0038 36.9131L21.9825 35.8333L22.054 34.5856L22.0464 34.2016L21.9452 33.9377L21.8389 33.4098C21.8357 33.2498 21.9381 33.1698 22.1461 33.1698ZM36.5955 31.1302C37.0595 31.1302 37.3804 31.1782 37.5583 31.2742L38.8289 32.426C39.2035 32.7619 39.5623 33.1059 39.9052 33.4578C40.3486 34.0337 40.5782 34.7295 40.5943 35.5454C40.6236 37.0331 40.0799 38.2729 38.9634 39.2647C38.0512 40.0645 37.211 40.4644 36.443 40.4644C35.163 40.4644 34.2887 39.9365 33.8199 38.8807C33.5855 38.3528 33.4584 37.585 33.4386 36.5772C33.4178 35.5214 33.4292 34.8815 33.4728 34.6576L33.6474 33.7697C33.9968 32.0101 34.9795 31.1302 36.5955 31.1302ZM36.5014 32.45C36.4214 32.45 36.2388 32.522 35.9537 32.6659L35.3622 33.0979C34.97 33.4978 34.7842 34.2176 34.8046 35.2574L34.816 35.8333L34.9007 36.4812L35.0777 36.9371L35.1577 37.345L35.0928 37.705L35.0509 38.0169C35.0566 38.3049 35.1811 38.5368 35.4246 38.7128C35.6681 38.8887 35.9418 38.9767 36.2458 38.9767C36.9018 38.9767 37.5358 38.6728 38.1478 38.0649C38.8857 37.345 39.2442 36.4572 39.2235 35.4014C39.2175 35.0975 39.1232 34.7775 38.9406 34.4416C38.7053 33.8657 38.2552 33.3538 37.5904 32.9059C37.1364 32.602 36.7734 32.45 36.5014 32.45ZM42.7806 33.9857C43.4366 33.9857 43.7734 34.4336 43.791 35.3294L43.8014 35.8573C43.8052 36.0493 43.8488 36.2333 43.9323 36.4092L44.2575 37.0811C44.3745 37.337 44.4652 37.473 44.5295 37.489C44.5775 37.489 44.6712 37.369 44.8104 37.1291C45.5831 35.7373 46.5706 34.6975 47.7731 34.0097C48.2477 33.7377 48.6211 33.6018 48.8931 33.6018C49.0371 33.6018 49.19 33.6498 49.3519 33.7457L49.7646 33.9857C50.0561 34.1617 50.2588 34.2976 50.3726 34.3936C50.5355 34.5376 50.6436 34.7455 50.6969 35.0175L50.6598 35.5694L50.7144 35.9053C50.8594 36.7691 51.0605 37.2331 51.3177 37.297C51.4617 37.297 51.6591 37.1611 51.9097 36.8891L52.521 36.2413L53.1548 35.5214L53.5106 35.3054L53.8673 35.1375L54.4611 34.8255C54.6992 34.7295 54.9783 34.6816 55.2983 34.6816C56.1783 34.6816 56.627 35.1215 56.6443 36.0013L56.6603 36.8171C56.6697 37.297 56.7253 37.681 56.827 37.9689L57.0505 38.3528L57.4402 38.6408C57.6024 38.7528 57.6855 38.9127 57.6896 39.1207C57.6924 39.2647 57.5919 39.4406 57.388 39.6486C57.1998 39.8406 57.026 39.9525 56.8666 39.9845C56.5146 39.9845 56.2486 39.8805 56.0685 39.6726C55.7742 39.3526 55.5544 39.1607 55.4091 39.0967L55.0218 38.9287C54.9083 38.8487 54.8491 38.6888 54.8444 38.4488C54.8425 38.3528 54.8878 38.2169 54.9804 38.0409L55.1422 37.729L55.1611 37.465L55.1262 36.9131L55.1172 36.4572C55.0837 36.3772 55.0666 36.3212 55.0659 36.2892C55.0631 36.1453 54.9975 36.0653 54.8692 36.0493C54.6612 36.0493 54.0479 36.5932 53.0293 37.681C52.0264 38.7528 51.4289 39.2887 51.2369 39.2887C50.4692 39.3047 50.0297 38.9207 49.9183 38.1369L49.6405 36.2173C49.5564 36.0093 49.4157 35.7693 49.2183 35.4974C48.9717 35.1615 48.7763 34.9855 48.632 34.9695C48.408 34.9695 47.9297 35.4654 47.1972 36.4572L46.753 37.0571L46.3314 37.585L45.8905 38.3528L45.5414 38.9047C45.2308 39.3846 44.8283 39.6646 44.3339 39.7446C43.5819 39.7446 43.1406 39.2727 43.01 38.3288L42.7299 36.2892L42.2409 34.6096C42.2327 34.1936 42.4126 33.9857 42.7806 33.9857ZM55.2236 28.4428C55.3196 28.4428 55.3769 28.5067 55.3954 28.6347C55.4048 29.1146 54.8395 29.6585 53.6995 30.2664C52.908 30.6983 52.1387 31.0423 51.3918 31.2982L50.6308 31.6581C49.9174 31.9941 48.9121 32.13 47.6149 32.0661L47.1104 32.0421C46.9168 31.9621 46.8174 31.7861 46.812 31.5142C46.8016 30.9863 47.1007 30.7383 47.7094 30.7703L48.6703 30.8183C49.2469 30.8503 50.1705 30.6263 51.4411 30.1464C52.4256 29.7625 53.3057 29.3626 54.0815 28.9467C54.6989 28.6107 55.0796 28.4428 55.2236 28.4428ZM60.3126 38.3049L59.5978 38.5688L58.9296 38.7608C58.4176 38.7608 58.1559 38.4728 58.1446 37.8969C58.1393 37.625 58.3275 37.433 58.7093 37.321C59.2341 37.1611 59.5985 36.9771 59.8024 36.7691C59.3381 35.9373 59.0942 34.9295 59.071 33.7457C59.0606 33.2178 59.2089 32.6259 59.516 31.9701C59.8689 31.2022 60.2854 30.8183 60.7654 30.8183C61.4374 30.8183 61.9718 31.1462 62.3687 31.8021C62.7157 32.362 62.8962 32.9939 62.91 33.6977C62.9377 35.1055 62.4008 36.2812 61.2994 37.2251C61.4836 37.641 61.995 38.0169 62.8336 38.3528C63.5109 38.6248 64.1536 38.7608 64.7616 38.7608C65.4976 38.7608 66.1746 38.6088 66.7926 38.3049C67.0452 38.1289 67.4165 37.8889 67.9065 37.585L68.3333 37.321L68.7389 37.2011C69.0749 37.2011 69.2611 37.313 69.2975 37.537C69.3029 37.8089 69.1324 38.0889 68.786 38.3768L68.004 38.8807L66.8186 39.6246C66.2473 39.8645 65.2417 39.9845 63.8017 39.9845C62.3937 39.9845 61.2307 39.4246 60.3126 38.3049ZM60.8141 35.7373C60.9556 35.6094 61.0566 35.4574 61.1172 35.2814L61.2988 34.7535C61.45 34.3056 61.5219 33.8977 61.5147 33.5298C61.5006 32.8099 61.2615 32.45 60.7975 32.45C60.6554 32.546 60.5536 32.6579 60.4921 32.7859L60.285 33.2418L60.2667 33.5298L60.2997 33.9857L60.2846 34.4416L60.3148 34.7535C60.3496 34.8975 60.4164 35.0415 60.5153 35.1855L60.8141 35.7373ZM69.8766 32.162C70.2442 32.146 70.502 32.234 70.6498 32.426C70.7975 32.618 70.867 32.8979 70.8583 33.2658L70.8513 34.1297L70.8673 34.9455L70.9059 35.6894C71.7539 35.6894 72.6283 35.4014 73.5289 34.8255C73.7975 34.6496 74.0044 34.1856 74.1496 33.4338C74.2656 32.8259 74.6196 32.522 75.2116 32.522C75.3076 32.522 75.4951 33.1059 75.7741 34.2736C75.8089 34.4176 75.9027 34.7135 76.0556 35.1615L76.361 36.0493L77.2077 37.609C77.3404 37.8489 77.5687 38.0649 77.8924 38.2569C78.2159 38.4328 78.5216 38.5208 78.8096 38.5208C79.3376 38.5208 79.8703 38.3528 80.4077 38.0169L82.2571 36.8651C82.451 36.9611 82.5739 37.1131 82.626 37.321C82.6396 38.0089 82.1394 38.6088 81.1254 39.1207C80.2382 39.5686 79.4186 39.7926 78.6666 39.7926C77.8026 39.7926 77.1672 39.6166 76.7603 39.2647C76.0606 38.6728 75.5137 37.713 75.1196 36.3852L74.8885 35.6174C74.8029 35.3294 74.696 35.1855 74.568 35.1855C74.5207 35.2174 74.4891 35.2414 74.4734 35.2574C74.3009 35.4334 74.0252 35.6494 73.6462 35.9053L73.3605 36.0253L72.9803 36.2173L72.1695 36.4812L71.2123 36.6252L71.1286 37.2491L71.1159 37.8249C71.1047 38.0649 71.1668 38.3768 71.3023 38.7608C71.4539 39.1447 71.5319 39.4486 71.5363 39.6726C71.4739 39.7526 71.419 39.8086 71.3716 39.8406L71.061 39.9125C70.421 39.9125 70.0925 39.4806 70.0755 38.6168L70.0599 37.8249C70.0235 37.601 69.9807 37.457 69.9314 37.393L69.8006 36.8411L69.058 36.9131C68.562 36.9131 68.3093 36.6732 68.2998 36.1933C68.2942 35.9053 68.5155 35.7693 68.9638 35.7853L69.7083 35.8093L69.6795 34.3456L69.6761 32.9539L69.598 32.6419L69.5453 32.402C69.5421 32.242 69.6526 32.162 69.8766 32.162ZM82.0122 31.3462C82.4442 31.3462 82.6891 31.5941 82.7468 32.0901L82.89 33.2658L82.9272 35.1615C82.9455 36.0893 83.0092 36.8891 83.1184 37.561C83.1912 38.0089 83.3557 38.2329 83.6117 38.2329C84.0277 38.2329 84.4441 37.8489 84.861 37.0811L85.8101 35.3054C85.9785 34.9215 86.2392 34.3456 86.5921 33.5778C86.9447 32.7939 87.329 32.402 87.745 32.402C88.289 32.402 88.6327 32.7939 88.7761 33.5778L89.2322 36.0253C89.3942 37.753 89.7312 38.6168 90.2432 38.6168C90.8832 38.6168 91.3539 38.5528 91.6554 38.4248C92.0203 38.2649 92.3862 38.1609 92.7533 38.1129C93.2813 38.1129 93.6175 38.5288 93.7618 39.3606C93.7979 39.5686 93.8259 40.1765 93.8457 41.1843C93.9127 44.5916 93.519 47.3511 92.6645 49.4627C92.2527 50.4865 91.8593 51.2304 91.4844 51.6943C90.9066 52.4141 90.1937 52.7741 89.3457 52.7741C88.5937 52.7741 87.8536 52.5661 87.1254 52.1502C86.4132 51.7343 85.8747 51.1984 85.5098 50.5425C84.7966 49.2627 84.4271 47.967 84.4013 46.6552C84.3941 46.2873 84.3978 46.0713 84.4126 46.0074C84.4568 45.8154 84.6066 45.7034 84.862 45.6714C85.182 45.6714 85.4093 45.8394 85.5439 46.1753C85.5978 46.4793 85.66 46.7912 85.7303 47.1111L85.7209 47.855L85.7496 48.095C85.8447 48.8628 86.2355 49.6147 86.922 50.3505C87.6245 51.0864 88.3517 51.4543 89.1037 51.4543C90.3357 51.4543 91.2781 50.1506 91.9308 47.5431C92.4351 45.5275 92.6664 43.4559 92.6245 41.3283L92.6179 40.9923C92.6091 40.5444 92.571 40.2325 92.5035 40.0565C92.3852 39.7366 92.1421 39.5766 91.7741 39.5766C91.5821 39.5766 91.295 39.6246 90.9129 39.7206C90.5468 39.8166 90.2677 39.8645 90.0757 39.8645C89.0677 39.8645 88.4784 39.1847 88.3076 37.8249L88.1367 36.4572C87.9286 34.8255 87.7046 34.0097 87.4646 34.0097C87.3686 34.0097 87.1145 34.5136 86.7023 35.5214C86.2456 36.7052 85.9394 37.409 85.7839 37.633C85.5508 37.9849 85.1746 38.3848 84.6555 38.8327C84.0105 39.3926 83.496 39.6726 83.112 39.6726C82.888 39.6726 82.6779 39.5686 82.4818 39.3606C82.2857 39.1527 82.1613 38.9287 82.1086 38.6888L82.0502 38.1609L82.062 37.537L82.0012 36.8891L81.9433 36.3852L81.9099 35.9053L81.9004 35.4254L81.7799 34.1776L81.7676 33.5538L81.6104 32.8819L81.5252 32.21L81.4941 31.8501C81.4724 31.5622 81.6451 31.3942 82.0122 31.3462ZM96.9707 30.2184C97.9627 30.2184 98.4484 31.3222 98.4278 33.5298L98.4213 34.4176C98.4122 34.7695 98.4297 35.2494 98.4736 35.8573C98.5035 36.5612 98.5209 37.0411 98.5259 37.297C98.5401 38.0169 98.6672 38.3768 98.9072 38.3768C99.4672 38.3768 100.016 37.8329 100.555 36.7452L101.848 34.1297L102.68 32.522C102.988 31.9141 103.35 31.6101 103.766 31.6101C104.374 31.6101 104.768 32.1061 104.947 33.0979L105.38 35.5934L105.974 37.705C106.163 38.3928 106.499 38.7928 106.982 38.9047H107.294C107.804 38.8407 108.24 38.6008 108.599 38.1849C109.194 37.513 109.644 37.1771 109.948 37.1771C110.268 37.1771 110.432 37.393 110.44 37.8249C110.446 38.1129 110.008 38.6008 109.125 39.2887C108.242 39.9605 107.641 40.2965 107.321 40.2965C106.313 40.2965 105.617 39.8885 105.233 39.0727L104.707 37.9449L104.328 36.9851L104.072 34.9695C103.939 33.8977 103.753 33.3618 103.513 33.3618C103.385 33.3618 103.237 33.5858 103.07 34.0337C102.781 34.8175 102.59 35.2734 102.497 35.4014L101.916 36.4092C101.582 37.305 101.165 38.0649 100.665 38.6888C99.9943 39.5526 99.2908 39.9845 98.5548 39.9845C97.8188 39.9845 97.4417 39.5206 97.4234 38.5928L97.3984 37.321L97.1901 32.8339C97.1587 32.0501 96.9987 31.6421 96.7101 31.6101C96.3421 31.6101 95.882 31.8101 95.3299 32.21L94.8353 32.6899C94.6785 32.8499 94.544 32.9299 94.432 32.9299C94.32 32.9299 94.1911 32.8819 94.0452 32.7859C93.899 32.6739 93.8168 32.562 93.7986 32.45C93.7948 32.258 93.8714 32.0821 94.0282 31.9221L94.4546 31.6341C94.6763 31.5222 95.0539 31.1942 95.5872 30.6503C95.8695 30.3624 96.3307 30.2184 96.9707 30.2184ZM113.893 30.6263C114.325 30.6263 114.639 30.7143 114.834 30.8903L115.445 31.4422L115.761 31.6581C115.858 31.7061 115.909 31.8181 115.912 31.9941L115.994 32.498C116.013 32.6579 116.079 32.7459 116.191 32.7619C116.415 32.7619 116.63 32.6979 116.835 32.57L117.312 32.378C117.536 32.378 117.725 32.6419 117.879 33.1698C118.067 33.7937 118.15 34.3456 118.128 34.8255L118.111 35.1855C118.098 35.3294 118.084 35.4494 118.07 35.5454L118.124 35.8573L118.274 36.1453L118.398 36.3612L118.407 36.8171L118.389 37.1291L118.392 37.297L118.448 37.705C118.468 37.8809 118.536 38.0729 118.652 38.2809L118.901 38.7368L119.171 39.0487L119.42 39.5046L119.525 39.9845L119.457 40.1765L119.244 40.3445L119.006 40.4404H118.55C118.437 40.3924 118.258 40.2485 118.014 40.0085L117.62 39.5286L117.609 38.9767L117.409 38.5688C117.325 38.3448 117.206 38.0009 117.053 37.537L117.023 37.2491L117.041 36.9131C117.062 36.3692 116.944 36.0813 116.688 36.0493C116.624 36.0813 116.537 36.1293 116.427 36.1933L116.168 36.4572L115.81 36.5532L115.377 36.5052C115.153 36.5052 114.91 36.7851 114.649 37.345C114.559 37.617 114.317 37.9289 113.924 38.2809C113.625 38.5528 113.318 38.8168 113.003 39.0727L112.508 39.5046L112.102 39.6006L111.717 39.5766H111.165C110.924 39.4966 110.679 39.2807 110.432 38.9287C110.185 38.5608 110.059 38.2489 110.054 37.9929C110.051 37.8169 110.093 37.561 110.183 37.2251L110.428 36.2892C110.576 35.6654 110.851 34.6016 111.254 33.0979C111.925 31.4502 112.805 30.6263 113.893 30.6263ZM113.609 32.0661C113.161 32.0661 112.792 32.386 112.5 33.0259L112.071 34.3696C111.98 34.6256 111.853 35.1135 111.692 35.8333L111.462 37.609L111.541 37.9209C111.591 38.0649 111.689 38.1369 111.833 38.1369C112.313 38.1369 112.982 37.585 113.84 36.4812C114.715 35.3774 115.147 34.5696 115.137 34.0577C115.124 33.4018 114.881 32.8499 114.408 32.402C114.18 32.178 113.913 32.0661 113.609 32.0661ZM127.023 31.4182L127.336 31.4662L127.914 31.5622L128.299 31.6341C128.397 31.7301 128.501 32.13 128.611 32.8339L128.735 36.6972C128.747 37.321 128.787 37.721 128.854 37.8969C129.007 38.3128 129.307 38.5208 129.755 38.5208C130.011 38.5208 130.265 38.4568 130.519 38.3288L131.019 38.1369C131.307 38.1369 131.488 38.3848 131.562 38.8807C131.568 39.2007 131.301 39.4566 130.761 39.6486C130.364 39.7926 129.957 39.8645 129.541 39.8645C128.613 39.8645 128.006 39.4966 127.719 38.7608C127.5 38.2009 127.375 37.1131 127.343 35.4974L127.318 34.2016L127.331 33.6498L127.323 33.2658C127.317 32.9299 127.225 32.7459 127.048 32.7139C126.504 32.7139 126.069 33.3538 125.742 34.6336L125.297 36.4092C125.089 37.2251 124.76 37.9529 124.308 38.5928C123.654 39.5046 122.855 39.9605 121.911 39.9605C121.591 39.9605 121.276 39.8166 120.967 39.5286C120.657 39.2407 120.499 38.9367 120.493 38.6168C120.484 38.1849 120.759 37.9289 121.317 37.8489C121.397 37.8489 121.52 37.9609 121.684 38.1849C121.864 38.3928 122.146 38.4968 122.53 38.4968C123.09 38.4968 123.618 37.697 124.115 36.0973L125.13 32.7859C125.544 31.8741 126.175 31.4182 127.023 31.4182Z" fill="black"/>
</svg>
