<svg width="30" height="30" viewBox="0 0 30 30" fill="none" xmlns="http://www.w3.org/2000/svg">
<rect x="0.5" y="0.5" width="29" height="29" rx="3.5" stroke="black"/>
<path d="M22.2269 6.56786C21.2871 5.62327 20.1677 4.87433 18.9339 4.36472C17.7001 3.85511 16.3767 3.59504 15.0408 3.59967C9.44362 3.59967 4.88181 8.13866 4.88181 13.7078C4.88181 15.4928 5.35337 17.2268 6.23498 18.7568L4.7998 23.9996L10.1817 22.592C11.6681 23.3978 13.3391 23.8262 15.0408 23.8262C20.638 23.8262 25.1998 19.2872 25.1998 13.718C25.1998 11.015 24.1439 8.47526 22.2269 6.56786ZM15.0408 22.1126C13.5236 22.1126 12.0372 21.7046 10.7353 20.9396L10.4277 20.756L7.22935 21.5924L8.08021 18.4916L7.87518 18.1754C7.03227 16.8361 6.58469 15.2881 6.58352 13.7078C6.58352 9.07705 10.3765 5.30307 15.0306 5.30307C17.2858 5.30307 19.4078 6.18026 20.9968 7.77146C21.7836 8.5507 22.4071 9.47757 22.8311 10.4983C23.2552 11.5191 23.4715 12.6135 23.4673 13.718C23.4878 18.3488 19.6949 22.1126 15.0408 22.1126ZM19.6744 15.8294C19.4181 15.707 18.1674 15.095 17.9419 15.0032C17.7061 14.9216 17.5421 14.8808 17.3678 15.1256C17.1936 15.3806 16.7118 15.9518 16.5682 16.115C16.4247 16.2884 16.271 16.3088 16.0147 16.1762C15.7584 16.0538 14.9383 15.7784 13.9747 14.9216C13.2161 14.2484 12.7138 13.4222 12.56 13.1672C12.4165 12.9122 12.5395 12.7796 12.6728 12.647C12.7855 12.5348 12.9291 12.3512 13.0521 12.2084C13.1751 12.0656 13.2263 11.9534 13.3083 11.7902C13.3904 11.6168 13.3494 11.474 13.2878 11.3516C13.2263 11.2292 12.7138 9.98485 12.5087 9.47485C12.3037 8.98526 12.0884 9.04645 11.9347 9.03625H11.4426C11.2683 9.03625 11.0018 9.09745 10.766 9.35245C10.5405 9.60745 9.88443 10.2195 9.88443 11.4638C9.88443 12.7082 10.7968 13.9118 10.9198 14.075C11.0428 14.2484 12.7138 16.7984 15.2561 17.8898C15.8609 18.155 16.3325 18.308 16.7015 18.4202C17.3063 18.614 17.8599 18.5834 18.3007 18.5222C18.7928 18.4508 19.8076 17.9102 20.0127 17.3186C20.2279 16.727 20.2279 16.2272 20.1562 16.115C20.0844 16.0028 19.9307 15.9518 19.6744 15.8294Z" fill="black"/>
</svg>
